{
    "asset" : {
        "generator" : "Khronos glTF Blender I/O v1.2.75",
        "version" : "2.0"
    },
    "scene" : 0,
    "scenes" : [
        {
            "name" : "Scene",
            "nodes" : [
                0,
                1,
                2,
                3
            ]
        }
    ],
    "nodes" : [
        {
            "mesh" : 0,
            "name" : "chunk054_group000_sub002"
        },
        {
            "mesh" : 1,
            "name" : "chunk054_group000_sub002.001"
        },
        {
            "mesh" : 2,
            "name" : "chunk054_group000_sub002.002"
        },
        {
            "mesh" : 3,
            "name" : "chunk054_group000_sub002.003"
        }
    ],
    "materials" : [
        {
            "doubleSided" : true,
            "emissiveFactor" : [
                0,
                0,
                0
            ],
            "name" : "nsl1",
            "pbrMetallicRoughness" : {
                "baseColorTexture" : {
                    "index" : 0,
                    "texCoord" : 0
                },
                "metallicFactor" : 0,
                "roughnessFactor" : 1
            }
        },
        {
            "doubleSided" : true,
            "emissiveFactor" : [
                0,
                0,
                0
            ],
            "name" : "nsl4",
            "pbrMetallicRoughness" : {
                "baseColorTexture" : {
                    "index" : 1,
                    "texCoord" : 0
                },
                "metallicFactor" : 0,
                "roughnessFactor" : 1
            }
        },
        {
            "doubleSided" : true,
            "emissiveFactor" : [
                0,
                0,
                0
            ],
            "name" : "nsl3",
            "pbrMetallicRoughness" : {
                "baseColorTexture" : {
                    "index" : 2,
                    "texCoord" : 0
                },
                "metallicFactor" : 0,
                "roughnessFactor" : 1
            }
        },
        {
            "doubleSided" : true,
            "emissiveFactor" : [
                0,
                0,
                0
            ],
            "name" : "nsl2",
            "pbrMetallicRoughness" : {
                "baseColorTexture" : {
                    "index" : 3,
                    "texCoord" : 0
                },
                "metallicFactor" : 0,
                "roughnessFactor" : 1
            }
        }
    ],
    "meshes" : [
        {
            "name" : "Mesh_0.001",
            "primitives" : [
                {
                    "attributes" : {
                        "POSITION" : 0,
                        "NORMAL" : 1,
                        "TEXCOORD_0" : 2
                    },
                    "indices" : 3,
                    "material" : 0
                }
            ]
        },
        {
            "name" : "Mesh_0.002",
            "primitives" : [
                {
                    "attributes" : {
                        "POSITION" : 4,
                        "NORMAL" : 5,
                        "TEXCOORD_0" : 6
                    },
                    "indices" : 7,
                    "material" : 1
                }
            ]
        },
        {
            "name" : "Mesh_0.003",
            "primitives" : [
                {
                    "attributes" : {
                        "POSITION" : 8,
                        "NORMAL" : 9,
                        "TEXCOORD_0" : 10
                    },
                    "indices" : 11,
                    "material" : 2
                }
            ]
        },
        {
            "name" : "Mesh_0.004",
            "primitives" : [
                {
                    "attributes" : {
                        "POSITION" : 12,
                        "NORMAL" : 13,
                        "TEXCOORD_0" : 14
                    },
                    "indices" : 15,
                    "material" : 3
                }
            ]
        }
    ],
    "textures" : [
        {
            "source" : 0
        },
        {
            "source" : 1
        },
        {
            "source" : 2
        },
        {
            "source" : 3
        }
    ],
    "images" : [
        {
            "mimeType" : "image/jpeg",
            "name" : "nsl1",
            "uri" : "nsl1.jpg"
        },
        {
            "mimeType" : "image/jpeg",
            "name" : "nsl4",
            "uri" : "nsl4.jpg"
        },
        {
            "mimeType" : "image/jpeg",
            "name" : "nsl3",
            "uri" : "nsl3.jpg"
        },
        {
            "mimeType" : "image/jpeg",
            "name" : "nsl2",
            "uri" : "nsl2.jpg"
        }
    ],
    "accessors" : [
        {
            "bufferView" : 0,
            "componentType" : 5126,
            "count" : 234800,
            "max" : [
                13.818563461303711,
                2.5683159828186035,
                -0.8399419784545898
            ],
            "min" : [
                -7.488814830780029,
                -0.043163001537323,
                -8.43803882598877
            ],
            "type" : "VEC3"
        },
        {
            "bufferView" : 1,
            "componentType" : 5126,
            "count" : 234800,
            "type" : "VEC3"
        },
        {
            "bufferView" : 2,
            "componentType" : 5126,
            "count" : 234800,
            "type" : "VEC2"
        },
        {
            "bufferView" : 3,
            "componentType" : 5125,
            "count" : 235206,
            "type" : "SCALAR"
        },
        {
            "bufferView" : 4,
            "componentType" : 5126,
            "count" : 68628,
            "max" : [
                8.183815002441406,
                2.4112548828125,
                6.732997894287109
            ],
            "min" : [
                -7.419897079467773,
                -0.12843599915504456,
                3.63857102394104
            ],
            "type" : "VEC3"
        },
        {
            "bufferView" : 5,
            "componentType" : 5126,
            "count" : 68628,
            "type" : "VEC3"
        },
        {
            "bufferView" : 6,
            "componentType" : 5126,
            "count" : 68628,
            "type" : "VEC2"
        },
        {
            "bufferView" : 7,
            "componentType" : 5125,
            "count" : 68754,
            "type" : "SCALAR"
        },
        {
            "bufferView" : 8,
            "componentType" : 5126,
            "count" : 101166,
            "max" : [
                7.684120178222656,
                2.5801150798797607,
                4.374179840087891
            ],
            "min" : [
                -7.4248948097229,
                -0.03571600094437599,
                -1.202638030052185
            ],
            "type" : "VEC3"
        },
        {
            "bufferView" : 9,
            "componentType" : 5126,
            "count" : 101166,
            "type" : "VEC3"
        },
        {
            "bufferView" : 10,
            "componentType" : 5126,
            "count" : 101166,
            "type" : "VEC2"
        },
        {
            "bufferView" : 11,
            "componentType" : 5125,
            "count" : 101370,
            "type" : "SCALAR"
        },
        {
            "bufferView" : 12,
            "componentType" : 5126,
            "count" : 97700,
            "max" : [
                7.460848808288574,
                2.858515977859497,
                -0.3697879910469055
            ],
            "min" : [
                -7.39716100692749,
                -0.0742110013961792,
                -5.910857200622559
            ],
            "type" : "VEC3"
        },
        {
            "bufferView" : 13,
            "componentType" : 5126,
            "count" : 97700,
            "type" : "VEC3"
        },
        {
            "bufferView" : 14,
            "componentType" : 5126,
            "count" : 97700,
            "type" : "VEC2"
        },
        {
            "bufferView" : 15,
            "componentType" : 5125,
            "count" : 97842,
            "type" : "SCALAR"
        }
    ],
    "bufferViews" : [
        {
            "buffer" : 0,
            "byteLength" : 2817600,
            "byteOffset" : 0
        },
        {
            "buffer" : 0,
            "byteLength" : 2817600,
            "byteOffset" : 2817600
        },
        {
            "buffer" : 0,
            "byteLength" : 1878400,
            "byteOffset" : 5635200
        },
        {
            "buffer" : 0,
            "byteLength" : 940824,
            "byteOffset" : 7513600
        },
        {
            "buffer" : 0,
            "byteLength" : 823536,
            "byteOffset" : 8454424
        },
        {
            "buffer" : 0,
            "byteLength" : 823536,
            "byteOffset" : 9277960
        },
        {
            "buffer" : 0,
            "byteLength" : 549024,
            "byteOffset" : 10101496
        },
        {
            "buffer" : 0,
            "byteLength" : 275016,
            "byteOffset" : 10650520
        },
        {
            "buffer" : 0,
            "byteLength" : 1213992,
            "byteOffset" : 10925536
        },
        {
            "buffer" : 0,
            "byteLength" : 1213992,
            "byteOffset" : 12139528
        },
        {
            "buffer" : 0,
            "byteLength" : 809328,
            "byteOffset" : 13353520
        },
        {
            "buffer" : 0,
            "byteLength" : 405480,
            "byteOffset" : 14162848
        },
        {
            "buffer" : 0,
            "byteLength" : 1172400,
            "byteOffset" : 14568328
        },
        {
            "buffer" : 0,
            "byteLength" : 1172400,
            "byteOffset" : 15740728
        },
        {
            "buffer" : 0,
            "byteLength" : 781600,
            "byteOffset" : 16913128
        },
        {
            "buffer" : 0,
            "byteLength" : 391368,
            "byteOffset" : 17694728
        }
    ],
    "buffers" : [
        {
            "byteLength" : 18086096,
            "uri" : "nsl.bin"
        }
    ]
}
