{
    "asset" : {
        "generator" : "Khronos glTF Blender I/O v1.2.75",
        "version" : "2.0"
    },
    "scene" : 0,
    "scenes" : [
        {
            "name" : "Scene",
            "nodes" : [
                0
            ]
        }
    ],
    "nodes" : [
        {
            "mesh" : 0,
            "name" : "BuildingMesh-00078",
            "rotation" : [
                0,
                5.930479801463662e-06,
                0.7071130275726318,
                0.707100510597229
            ],
            "scale" : [
                0.003906246507540345,
                0.003906270954757929,
                0.003906221129000187
            ],
            "translation" : [
                -2.905073404312134,
                0.9214743375778198,
                -1.6085741519927979
            ]
        }
    ],
    "materials" : [
        {
            "doubleSided" : true,
            "emissiveFactor" : [
                0,
                0,
                0
            ],
            "name" : "BuildingMat-00078",
            "pbrMetallicRoughness" : {
                "baseColorTexture" : {
                    "index" : 0,
                    "texCoord" : 0
                },
                "metallicFactor" : 0,
                "roughnessFactor" : 1
            }
        },
        {
            "doubleSided" : true,
            "emissiveFactor" : [
                0,
                0,
                0
            ],
            "name" : "BuildingMat-00068",
            "pbrMetallicRoughness" : {
                "baseColorTexture" : {
                    "index" : 1,
                    "texCoord" : 0
                },
                "metallicFactor" : 0,
                "roughnessFactor" : 1
            }
        },
        {
            "doubleSided" : true,
            "emissiveFactor" : [
                0,
                0,
                0
            ],
            "name" : "BuildingMat-00069",
            "pbrMetallicRoughness" : {
                "baseColorTexture" : {
                    "index" : 2,
                    "texCoord" : 0
                },
                "metallicFactor" : 0,
                "roughnessFactor" : 1
            }
        },
        {
            "doubleSided" : true,
            "emissiveFactor" : [
                0,
                0,
                0
            ],
            "name" : "BuildingMat-00088",
            "pbrMetallicRoughness" : {
                "baseColorTexture" : {
                    "index" : 3,
                    "texCoord" : 0
                },
                "metallicFactor" : 0,
                "roughnessFactor" : 1
            }
        },
        {
            "doubleSided" : true,
            "emissiveFactor" : [
                0,
                0,
                0
            ],
            "name" : "BuildingMat-00090",
            "pbrMetallicRoughness" : {
                "baseColorTexture" : {
                    "index" : 4,
                    "texCoord" : 0
                },
                "metallicFactor" : 0,
                "roughnessFactor" : 1
            }
        },
        {
            "doubleSided" : true,
            "emissiveFactor" : [
                0,
                0,
                0
            ],
            "name" : "BuildingMat-00079",
            "pbrMetallicRoughness" : {
                "baseColorTexture" : {
                    "index" : 5,
                    "texCoord" : 0
                },
                "metallicFactor" : 0,
                "roughnessFactor" : 1
            }
        },
        {
            "doubleSided" : true,
            "emissiveFactor" : [
                0,
                0,
                0
            ],
            "name" : "BuildingMat-00089",
            "pbrMetallicRoughness" : {
                "baseColorTexture" : {
                    "index" : 6,
                    "texCoord" : 0
                },
                "metallicFactor" : 0,
                "roughnessFactor" : 1
            }
        },
        {
            "doubleSided" : true,
            "emissiveFactor" : [
                0,
                0,
                0
            ],
            "name" : "BuildingMat-00091",
            "pbrMetallicRoughness" : {
                "baseColorTexture" : {
                    "index" : 7,
                    "texCoord" : 0
                },
                "metallicFactor" : 0,
                "roughnessFactor" : 1
            }
        }
    ],
    "meshes" : [
        {
            "name" : "BuildingMesh-00078",
            "primitives" : [
                {
                    "attributes" : {
                        "POSITION" : 0,
                        "NORMAL" : 1,
                        "TEXCOORD_0" : 2
                    },
                    "indices" : 3,
                    "material" : 0
                },
                {
                    "attributes" : {
                        "POSITION" : 4,
                        "NORMAL" : 5,
                        "TEXCOORD_0" : 6
                    },
                    "indices" : 7,
                    "material" : 1
                },
                {
                    "attributes" : {
                        "POSITION" : 8,
                        "NORMAL" : 9,
                        "TEXCOORD_0" : 10
                    },
                    "indices" : 11,
                    "material" : 2
                },
                {
                    "attributes" : {
                        "POSITION" : 12,
                        "NORMAL" : 13,
                        "TEXCOORD_0" : 14
                    },
                    "indices" : 15,
                    "material" : 3
                },
                {
                    "attributes" : {
                        "POSITION" : 16,
                        "NORMAL" : 17,
                        "TEXCOORD_0" : 18
                    },
                    "indices" : 19,
                    "material" : 4
                },
                {
                    "attributes" : {
                        "POSITION" : 20,
                        "NORMAL" : 21,
                        "TEXCOORD_0" : 22
                    },
                    "indices" : 23,
                    "material" : 5
                },
                {
                    "attributes" : {
                        "POSITION" : 24,
                        "NORMAL" : 25,
                        "TEXCOORD_0" : 26
                    },
                    "indices" : 27,
                    "material" : 6
                },
                {
                    "attributes" : {
                        "POSITION" : 28,
                        "NORMAL" : 29,
                        "TEXCOORD_0" : 30
                    },
                    "indices" : 31,
                    "material" : 7
                }
            ]
        }
    ],
    "textures" : [
        {
            "source" : 0
        },
        {
            "source" : 1
        },
        {
            "source" : 2
        },
        {
            "source" : 3
        },
        {
            "source" : 4
        },
        {
            "source" : 5
        },
        {
            "source" : 6
        },
        {
            "source" : 7
        }
    ],
    "images" : [
        {
            "mimeType" : "image/png",
            "name" : "nsl_old-00078-texture",
            "uri" : "nsl_old-00078-texture.png"
        },
        {
            "mimeType" : "image/png",
            "name" : "nsl_old-00068-texture",
            "uri" : "nsl_old-00068-texture.png"
        },
        {
            "mimeType" : "image/png",
            "name" : "nsl_old-00069-texture",
            "uri" : "nsl_old-00069-texture.png"
        },
        {
            "mimeType" : "image/png",
            "name" : "nsl_old-00088-texture",
            "uri" : "nsl_old-00088-texture.png"
        },
        {
            "mimeType" : "image/png",
            "name" : "nsl_old-00090-texture",
            "uri" : "nsl_old-00090-texture.png"
        },
        {
            "mimeType" : "image/png",
            "name" : "nsl_old-00079-texture",
            "uri" : "nsl_old-00079-texture.png"
        },
        {
            "mimeType" : "image/png",
            "name" : "nsl_old-00089-texture",
            "uri" : "nsl_old-00089-texture.png"
        },
        {
            "mimeType" : "image/png",
            "name" : "nsl_old-00091-texture",
            "uri" : "nsl_old-00091-texture.png"
        }
    ],
    "accessors" : [
        {
            "bufferView" : 0,
            "componentType" : 5126,
            "count" : 1098,
            "max" : [
                76.29804229736328,
                243.95294189453125,
                -74.29019927978516
            ],
            "min" : [
                9.035294532775879,
                171.67059326171875,
                -163.63922119140625
            ],
            "type" : "VEC3"
        },
        {
            "bufferView" : 1,
            "componentType" : 5126,
            "count" : 1098,
            "type" : "VEC3"
        },
        {
            "bufferView" : 2,
            "componentType" : 5126,
            "count" : 1098,
            "type" : "VEC2"
        },
        {
            "bufferView" : 3,
            "componentType" : 5123,
            "count" : 1254,
            "type" : "SCALAR"
        },
        {
            "bufferView" : 4,
            "componentType" : 5126,
            "count" : 5414,
            "max" : [
                11.064483642578125,
                251.9840545654297,
                -24.094287872314453
            ],
            "min" : [
                -58.20606994628906,
                3.0128843784332275,
                -231.90487670898438
            ],
            "type" : "VEC3"
        },
        {
            "bufferView" : 5,
            "componentType" : 5126,
            "count" : 5414,
            "type" : "VEC3"
        },
        {
            "bufferView" : 6,
            "componentType" : 5126,
            "count" : 5414,
            "type" : "VEC2"
        },
        {
            "bufferView" : 7,
            "componentType" : 5123,
            "count" : 6126,
            "type" : "SCALAR"
        },
        {
            "bufferView" : 8,
            "componentType" : 5126,
            "count" : 4576,
            "max" : [
                10.05889892578125,
                251.98428344726562,
                -229.9926300048828
            ],
            "min" : [
                -59.212158203125,
                3.012448310852051,
                -436.79998779296875
            ],
            "type" : "VEC3"
        },
        {
            "bufferView" : 9,
            "componentType" : 5126,
            "count" : 4576,
            "type" : "VEC3"
        },
        {
            "bufferView" : 10,
            "componentType" : 5126,
            "count" : 4576,
            "type" : "VEC2"
        },
        {
            "bufferView" : 11,
            "componentType" : 5123,
            "count" : 4701,
            "type" : "SCALAR"
        },
        {
            "bufferView" : 12,
            "componentType" : 5126,
            "count" : 8416,
            "max" : [
                11.062393188476562,
                502.89398193359375,
                -24.09482192993164
            ],
            "min" : [
                -57.20384216308594,
                250.91061401367188,
                -232.90846252441406
            ],
            "type" : "VEC3"
        },
        {
            "bufferView" : 13,
            "componentType" : 5126,
            "count" : 8416,
            "type" : "VEC3"
        },
        {
            "bufferView" : 14,
            "componentType" : 5126,
            "count" : 8416,
            "type" : "VEC2"
        },
        {
            "bufferView" : 15,
            "componentType" : 5123,
            "count" : 9282,
            "type" : "SCALAR"
        },
        {
            "bufferView" : 16,
            "componentType" : 5126,
            "count" : 8500,
            "max" : [
                10.059494018554688,
                502.89410400390625,
                -226.98007202148438
            ],
            "min" : [
                -56.20008850097656,
                250.91090393066406,
                -439.8100280761719
            ],
            "type" : "VEC3"
        },
        {
            "bufferView" : 17,
            "componentType" : 5126,
            "count" : 8500,
            "type" : "VEC3"
        },
        {
            "bufferView" : 18,
            "componentType" : 5126,
            "count" : 8500,
            "type" : "VEC2"
        },
        {
            "bufferView" : 19,
            "componentType" : 5123,
            "count" : 8712,
            "type" : "SCALAR"
        },
        {
            "bufferView" : 20,
            "componentType" : 5126,
            "count" : 51,
            "max" : [
                73.28260803222656,
                184.72283935546875,
                -323.35638427734375
            ],
            "min" : [
                9.03165054321289,
                177.6953887939453,
                -330.3836669921875
            ],
            "type" : "VEC3"
        },
        {
            "bufferView" : 21,
            "componentType" : 5126,
            "count" : 51,
            "type" : "VEC3"
        },
        {
            "bufferView" : 22,
            "componentType" : 5126,
            "count" : 51,
            "type" : "VEC2"
        },
        {
            "bufferView" : 23,
            "componentType" : 5123,
            "count" : 51,
            "type" : "SCALAR"
        },
        {
            "bufferView" : 24,
            "componentType" : 5126,
            "count" : 99,
            "max" : [
                10.058822631835938,
                494.8627014160156,
                -71.27870178222656
            ],
            "min" : [
                -54.19171142578125,
                326.2044677734375,
                -230.90065002441406
            ],
            "type" : "VEC3"
        },
        {
            "bufferView" : 25,
            "componentType" : 5126,
            "count" : 99,
            "type" : "VEC3"
        },
        {
            "bufferView" : 26,
            "componentType" : 5126,
            "count" : 99,
            "type" : "VEC2"
        },
        {
            "bufferView" : 27,
            "componentType" : 5123,
            "count" : 108,
            "type" : "SCALAR"
        },
        {
            "bufferView" : 28,
            "componentType" : 5126,
            "count" : 180,
            "max" : [
                -9.015182495117188,
                499.88226318359375,
                -239.0272216796875
            ],
            "min" : [
                -53.18821716308594,
                270.9899597167969,
                -433.78643798828125
            ],
            "type" : "VEC3"
        },
        {
            "bufferView" : 29,
            "componentType" : 5126,
            "count" : 180,
            "type" : "VEC3"
        },
        {
            "bufferView" : 30,
            "componentType" : 5126,
            "count" : 180,
            "type" : "VEC2"
        },
        {
            "bufferView" : 31,
            "componentType" : 5123,
            "count" : 180,
            "type" : "SCALAR"
        }
    ],
    "bufferViews" : [
        {
            "buffer" : 0,
            "byteLength" : 13176,
            "byteOffset" : 0
        },
        {
            "buffer" : 0,
            "byteLength" : 13176,
            "byteOffset" : 13176
        },
        {
            "buffer" : 0,
            "byteLength" : 8784,
            "byteOffset" : 26352
        },
        {
            "buffer" : 0,
            "byteLength" : 2508,
            "byteOffset" : 35136
        },
        {
            "buffer" : 0,
            "byteLength" : 64968,
            "byteOffset" : 37644
        },
        {
            "buffer" : 0,
            "byteLength" : 64968,
            "byteOffset" : 102612
        },
        {
            "buffer" : 0,
            "byteLength" : 43312,
            "byteOffset" : 167580
        },
        {
            "buffer" : 0,
            "byteLength" : 12252,
            "byteOffset" : 210892
        },
        {
            "buffer" : 0,
            "byteLength" : 54912,
            "byteOffset" : 223144
        },
        {
            "buffer" : 0,
            "byteLength" : 54912,
            "byteOffset" : 278056
        },
        {
            "buffer" : 0,
            "byteLength" : 36608,
            "byteOffset" : 332968
        },
        {
            "buffer" : 0,
            "byteLength" : 9402,
            "byteOffset" : 369576
        },
        {
            "buffer" : 0,
            "byteLength" : 100992,
            "byteOffset" : 378980
        },
        {
            "buffer" : 0,
            "byteLength" : 100992,
            "byteOffset" : 479972
        },
        {
            "buffer" : 0,
            "byteLength" : 67328,
            "byteOffset" : 580964
        },
        {
            "buffer" : 0,
            "byteLength" : 18564,
            "byteOffset" : 648292
        },
        {
            "buffer" : 0,
            "byteLength" : 102000,
            "byteOffset" : 666856
        },
        {
            "buffer" : 0,
            "byteLength" : 102000,
            "byteOffset" : 768856
        },
        {
            "buffer" : 0,
            "byteLength" : 68000,
            "byteOffset" : 870856
        },
        {
            "buffer" : 0,
            "byteLength" : 17424,
            "byteOffset" : 938856
        },
        {
            "buffer" : 0,
            "byteLength" : 612,
            "byteOffset" : 956280
        },
        {
            "buffer" : 0,
            "byteLength" : 612,
            "byteOffset" : 956892
        },
        {
            "buffer" : 0,
            "byteLength" : 408,
            "byteOffset" : 957504
        },
        {
            "buffer" : 0,
            "byteLength" : 102,
            "byteOffset" : 957912
        },
        {
            "buffer" : 0,
            "byteLength" : 1188,
            "byteOffset" : 958016
        },
        {
            "buffer" : 0,
            "byteLength" : 1188,
            "byteOffset" : 959204
        },
        {
            "buffer" : 0,
            "byteLength" : 792,
            "byteOffset" : 960392
        },
        {
            "buffer" : 0,
            "byteLength" : 216,
            "byteOffset" : 961184
        },
        {
            "buffer" : 0,
            "byteLength" : 2160,
            "byteOffset" : 961400
        },
        {
            "buffer" : 0,
            "byteLength" : 2160,
            "byteOffset" : 963560
        },
        {
            "buffer" : 0,
            "byteLength" : 1440,
            "byteOffset" : 965720
        },
        {
            "buffer" : 0,
            "byteLength" : 360,
            "byteOffset" : 967160
        }
    ],
    "buffers" : [
        {
            "byteLength" : 967520,
            "uri" : "nsl_old_small.bin"
        }
    ]
}
